<svg xmlns="http://www.w3.org/2000/svg" viewBox="0 0 69 120"><defs><filter id="rally4-1" x="-30%" y="-30%" width="160%" height="160%"><feGaussianBlur stdDeviation="0.6"/></filter><radialGradient id="rally4-2" cx="0.42" cy="0.4" r="0.62"><stop offset="0" stop-color="#dbe9b3"/><stop offset="0.65" stop-color="#c8dc9a"/><stop offset="1" stop-color="#b3cb82"/></radialGradient><radialGradient id="rally4-3" cx="0.5" cy="0.5" r="0.5"><stop offset="0" stop-color="#e4d3a6" stop-opacity="0.95"/><stop offset="0.7" stop-color="#d8c393" stop-opacity="0.8"/><stop offset="1" stop-color="#cdb582" stop-opacity="0"/></radialGradient><filter id="rally4-4" x="-30%" y="-30%" width="160%" height="160%"><feGaussianBlur stdDeviation="1.6"/></filter><linearGradient id="rally4-5" x1="0" y1="0" x2="0" y2="1"><stop offset="0" stop-color="#b88a56"/><stop offset="1" stop-color="#6e4a28"/></linearGradient><linearGradient id="rally4-6" x1="0" y1="0" x2="0" y2="1"><stop offset="0" stop-color="#986c40"/><stop offset="0.8" stop-color="#72502c"/><stop offset="1" stop-color="#5f4224"/></linearGradient><clipPath id="rally4-7"><polygon points="53.4,68.4 56.1,66.6 56.1,69.2 53.4,71"/></clipPath><linearGradient id="rally4-8" x1="0" y1="0" x2="0" y2="1"><stop offset="0" stop-color="#daaf7c"/><stop offset="1" stop-color="#d4a26a"/></linearGradient><linearGradient id="rally4-9" x1="0" y1="0" x2="0" y2="1"><stop offset="0" stop-color="#d4a26a"/><stop offset="0.8" stop-color="#a87846"/><stop offset="1" stop-color="#896238"/></linearGradient><clipPath id="rally4-10"><polygon points="46.6,68.4 53.4,68.4 53.4,71 46.6,71"/></clipPath><filter id="rally4-11" x="-30%" y="-30%" width="160%" height="160%"><feGaussianBlur stdDeviation="0.7"/></filter><linearGradient id="rally4-12" x1="0" y1="0" x2="0" y2="1"><stop offset="0" stop-color="#7e5834"/><stop offset="0.8" stop-color="#5c3e22"/><stop offset="1" stop-color="#4e341c"/></linearGradient><clipPath id="rally4-13"><polygon points="53.6,65.3 57.5,62.6 53,58.2"/></clipPath><linearGradient id="rally4-14" x1="0" y1="0" x2="0" y2="1"><stop offset="0" stop-color="#b8865a"/><stop offset="0.8" stop-color="#8c603c"/><stop offset="1" stop-color="#734f31"/></linearGradient><clipPath id="rally4-15"><polygon points="45.2,65.3 53.6,65.3 53,58.2 49.6,58.2"/></clipPath><linearGradient id="rally4-16" gradientUnits="userSpaceOnUse" x1="53" y1="0" x2="57" y2="0"><stop offset="0" stop-color="#c66552"/><stop offset="1" stop-color="#993726"/></linearGradient><linearGradient id="rally4-17" x1="0" y1="0" x2="0" y2="1"><stop offset="0" stop-color="#f6eedb"/><stop offset="0.8" stop-color="#ddd0ad"/><stop offset="1" stop-color="#b3a689"/></linearGradient><linearGradient id="rally4-18" x1="0" y1="0" x2="0" y2="1"><stop offset="0" stop-color="#e0d4b8"/><stop offset="0.8" stop-color="#c2b290"/><stop offset="1" stop-color="#9d8f72"/></linearGradient><linearGradient id="rally4-19" gradientUnits="userSpaceOnUse" x1="32.2" y1="0" x2="39.2" y2="0"><stop offset="0" stop-color="#c66552"/><stop offset="0.5" stop-color="#b8402e"/><stop offset="1" stop-color="#913424"/></linearGradient><radialGradient id="rally4-20" cx="0.35" cy="0.3" r="0.8"><stop offset="0" stop-color="#e2dccb"/><stop offset="1" stop-color="#9c9482"/></radialGradient><linearGradient id="rally4-21" gradientUnits="userSpaceOnUse" x1="13.6" y1="0" x2="17" y2="0"><stop offset="0" stop-color="#718aac"/><stop offset="0.5" stop-color="#4e6f9e"/><stop offset="1" stop-color="#425878"/></linearGradient><linearGradient id="rally4-22" gradientUnits="userSpaceOnUse" x1="45.6" y1="0" x2="49" y2="0"><stop offset="0" stop-color="#e8be60"/><stop offset="0.5" stop-color="#e2b040"/><stop offset="1" stop-color="#b08832"/></linearGradient><linearGradient id="rally4-23" gradientUnits="userSpaceOnUse" x1="55.6" y1="0" x2="59" y2="0"><stop offset="0" stop-color="#7da067"/><stop offset="0.5" stop-color="#5d8a48"/><stop offset="1" stop-color="#4d6c38"/></linearGradient><radialGradient id="rally4-24" cx="0.5" cy="0.7" r="0.7"><stop offset="0" stop-color="#fff2a8"/><stop offset="0.5" stop-color="#f0a030"/><stop offset="1" stop-color="#c84a20"/></radialGradient><filter id="rally4-25" x="-30%" y="-30%" width="160%" height="160%"><feGaussianBlur stdDeviation="0.9"/></filter><radialGradient id="rally4-26" cx="0.4" cy="0.4" r="0.7"><stop offset="0" stop-color="#f0dc9a"/><stop offset="1" stop-color="#c9a052"/></radialGradient><radialGradient id="rally4-27" cx="0.35" cy="0.3" r="0.75"><stop offset="0" stop-color="#e6d6b3"/><stop offset="0.6" stop-color="#d8c49a"/><stop offset="1" stop-color="#a08f6e"/></radialGradient><radialGradient id="rally4-28" cx="0.35" cy="0.3" r="0.75"><stop offset="0" stop-color="#8398b2"/><stop offset="1" stop-color="#425878"/></radialGradient><radialGradient id="rally4-29" cx="0.35" cy="0.3" r="0.75"><stop offset="0" stop-color="#cd7764"/><stop offset="1" stop-color="#913424"/></radialGradient><radialGradient id="rally4-30" cx="0.35" cy="0.3" r="0.75"><stop offset="0" stop-color="#ebc571"/><stop offset="1" stop-color="#b08832"/></radialGradient><linearGradient id="rally4-31" gradientUnits="userSpaceOnUse" x1="12.5" y1="0" x2="15.5" y2="0"><stop offset="0" stop-color="#a87846"/><stop offset="0.28" stop-color="#d4a26a"/><stop offset="0.7" stop-color="#986c40"/><stop offset="1" stop-color="#654727"/></linearGradient><clipPath id="rally4-32"><path d="M12.5,111.3V114.5A1.5,.6 0 0 0 15.5,114.5V111.3A1.5,.6 0 0 1 12.5,111.3Z"/></clipPath><radialGradient id="rally4-33" cx="0.4" cy="0.4" r="0.7"><stop offset="0" stop-color="#c99a62"/><stop offset="1" stop-color="#8a5e36"/></radialGradient></defs><g stroke="#3b2a17" stroke-opacity=".7" stroke-width=".9" stroke-linejoin="round" stroke-linecap="round"><ellipse cx="34" cy="104.4" rx="31.6" ry="11.8" fill="#b9d08a" stroke="none" opacity=".5" filter="url(#rally4-1)"/><ellipse cx="34" cy="104" rx="30.6" ry="10.4" fill="url(#rally4-2)" stroke="none" opacity=".9"/><path d="M54.8,110.5l.5,-1.5l.4,1.4l.6,-1.7l.5,1.7M57.8,103.6l.5,-1.5l.4,1.4l.6,-1.7l.5,1.7M48.2,111.2l.5,-1.5l.4,1.4l.6,-1.7l.5,1.7M18.9,110.2l.5,-1.5l.4,1.4l.6,-1.7l.5,1.7M39.4,110.8l.5,-1.5l.4,1.4l.6,-1.7l.5,1.7M51.9,110.3l.5,-1.5l.4,1.4l.6,-1.7l.5,1.7M27,97.5l.5,-1.5l.4,1.4l.6,-1.7l.5,1.7M7.3,104.8l.5,-1.5l.4,1.4l.6,-1.7l.5,1.7M10.8,108.5l.5,-1.5l.4,1.4l.6,-1.7l.5,1.7" fill="none" stroke="#7f9e4c" stroke-width=".45" stroke-opacity=".9"/><g transform="translate(34 104) scale(1.18) translate(-34 -104)"><ellipse cx="35" cy="105" rx="21.4" ry="7" fill="url(#rally4-3)" stroke="none"/><ellipse cx="36.7" cy="105" rx="22.7" ry="7.6" fill="#1f2a0c" stroke="none" opacity="0.22" filter="url(#rally4-4)"/><path d="M10,101.3V93.7L10.9,92.3L11.8,93.7V101.3Z" fill="url(#rally4-5)" stroke-width=".55"/><path d="M10.9,100V92.4L11.8,91L12.7,92.4V100Z" fill="url(#rally4-5)" stroke-width=".55"/><path d="M12.3,98.8V91.2L13.2,89.8L14.1,91.2V98.8Z" fill="url(#rally4-5)" stroke-width=".55"/><path d="M14,97.7V90.1L14.9,88.7L15.8,90.1V97.7Z" fill="url(#rally4-5)" stroke-width=".55"/><path d="M16.2,96.7V89.1L17.1,87.7L18,89.1V96.7Z" fill="url(#rally4-5)" stroke-width=".55"/><path d="M18.8,95.9V88.3L19.7,86.9L20.6,88.3V95.9Z" fill="url(#rally4-5)" stroke-width=".55"/><path d="M21.6,95.1V87.5L22.5,86.1L23.4,87.5V95.1Z" fill="url(#rally4-5)" stroke-width=".55"/><path d="M24.7,94.6V87L25.6,85.6L26.5,87V94.6Z" fill="url(#rally4-5)" stroke-width=".55"/><path d="M28,94.2V86.6L28.9,85.2L29.8,86.6V94.2Z" fill="url(#rally4-5)" stroke-width=".55"/><path d="M31.4,94V86.4L32.3,85L33.2,86.4V94Z" fill="url(#rally4-5)" stroke-width=".55"/><path d="M34.8,94V86.4L35.7,85L36.6,86.4V94Z" fill="url(#rally4-5)" stroke-width=".55"/><path d="M38.2,94.2V86.6L39.1,85.2L40,86.6V94.2Z" fill="url(#rally4-5)" stroke-width=".55"/><path d="M41.5,94.6V87L42.4,85.6L43.3,87V94.6Z" fill="url(#rally4-5)" stroke-width=".55"/><path d="M44.6,95.1V87.5L45.5,86.1L46.4,87.5V95.1Z" fill="url(#rally4-5)" stroke-width=".55"/><path d="M47.4,95.9V88.3L48.3,86.9L49.2,88.3V95.9Z" fill="url(#rally4-5)" stroke-width=".55"/><path d="M50,96.7V89.1L50.9,87.7L51.8,89.1V96.7Z" fill="url(#rally4-5)" stroke-width=".55"/><path d="M52.2,97.7V90.1L53.1,88.7L54,90.1V97.7Z" fill="url(#rally4-5)" stroke-width=".55"/><path d="M53.9,98.8V91.2L54.8,89.8L55.7,91.2V98.8Z" fill="url(#rally4-5)" stroke-width=".55"/><path d="M55.3,100V92.4L56.2,91L57.1,92.4V100Z" fill="url(#rally4-5)" stroke-width=".55"/><path d="M56.2,101.3V93.7L57.1,92.3L58,93.7V101.3Z" fill="url(#rally4-5)" stroke-width=".55"/><ellipse cx="54" cy="93.5" rx="5" ry="1.8" fill="#1f2a0c" stroke="none" opacity="0.25" filter="url(#rally4-4)"/><polyline points="49.7,91.1 50.1,69.5" fill="none" stroke="#6a4626" stroke-width="1.2" stroke-opacity="1"/><polyline points="55.7,91.1 54.3,69.5" fill="none" stroke="#6a4626" stroke-width="1.2" stroke-opacity="1"/><polyline points="47,93 47.9,71" fill="none" stroke="#7e5632" stroke-width="1.2" stroke-opacity="1"/><polyline points="53,93 52.1,71" fill="none" stroke="#7e5632" stroke-width="1.2" stroke-opacity="1"/><polyline points="47.2,90 52.4,83 47.7,77" fill="none" stroke="#8a6038" stroke-width=".6" stroke-opacity="1"/><polygon points="53.4,68.4 56.1,66.6 56.1,69.2 53.4,71" fill="url(#rally4-6)"/><g clip-path="url(#rally4-7)"><path d="M56.6,66.2l0,2.6" fill="none" stroke="#5e3e20" stroke-width="1.5" stroke-opacity="0.12"/><path d="M54.2,67.8l0,2.6M55.8,66.8l0,2.6" fill="none" stroke="#5e3e20" stroke-width=".4" stroke-opacity="0.6"/><path d="M54.6,67.6l0,2.6M56.1,66.5l0,2.6" fill="none" stroke="#e3c094" stroke-width=".3" stroke-opacity="0.35"/></g><polygon points="46.6,68.4 53.4,68.4 56.1,66.6 49.3,66.6" fill="url(#rally4-8)"/><polygon points="46.6,68.4 53.4,68.4 53.4,71 46.6,71" fill="url(#rally4-9)"/><g clip-path="url(#rally4-10)"><path d="M47.9,68.4l0,2.6M49.9,68.4l0,2.6M49.9,69.7l2,0M51.8,68.4l0,2.6" fill="none" stroke="#5e3e20" stroke-width=".4" stroke-opacity="0.6"/><path d="M48.3,68.4l0,2.6M50.3,68.4l0,2.6M52.3,68.4l0,2.6" fill="none" stroke="#e3c094" stroke-width=".3" stroke-opacity="0.35"/></g><polyline points="47,68.4 47,63.6" fill="none" stroke="#5a3a1e" stroke-width=".7" stroke-opacity="1"/><polyline points="53,68.4 53,63.6" fill="none" stroke="#5a3a1e" stroke-width=".7" stroke-opacity="1"/><polyline points="47,66.6 53,66.6" fill="none" stroke="#5a3a1e" stroke-width=".5" stroke-opacity="1"/><polygon points="46.6,63.1 53.4,63.1 53.4,65.6 46.6,66.2" fill="#2a1a0a" stroke="none" opacity=".33" filter="url(#rally4-11)"/><polygon points="53.4,63.1 56.1,61.3 56.1,64.2 53.4,66" fill="#1c1006" stroke="none" opacity=".3" filter="url(#rally4-11)"/><polygon points="49.1,62.6 57.5,62.6 53,58.2 49.6,58.2" fill="#563a1f"/><polygon points="53.6,65.3 57.5,62.6 53,58.2" fill="url(#rally4-12)"/><g clip-path="url(#rally4-13)"><path d="M51.8,61.2l3.9-2.7M51.1,59.5l.6,1.7M53.1,58.2l.7,1.6M54.9,56.9l.8,1.6M52.5,62.8l3.9-2.7M53.1,60.3l.8,1.6M55.2,58.9l.8,1.6M53.2,64.5l3.9-2.7M52.8,62.6l.7,1.6M55.2,61l.7,1.6M53.9,66.1l3.9-2.7M54.8,63.4l.6,1.7M56.6,62.2l.8,1.6" fill="none" stroke="#462e18" stroke-width=".3" stroke-opacity="0.6"/><path d="M51.6,60.7l3.9-2.7M52.3,62.4l3.9-2.7M53,64l3.9-2.7M53.7,65.7l3.9-2.7" fill="none" stroke="#cda883" stroke-width=".4" stroke-opacity="0.4"/></g><polygon points="45.2,65.3 53.6,65.3 53,58.2 49.6,58.2" fill="url(#rally4-14)"/><g clip-path="url(#rally4-15)"><path d="M46.6,59.9l8.4,0M47.5,58.2l-.5,1.7M50.2,58.2l-.4,1.7M53.4,58.2l-.4,1.7M46.2,61.7l8.4,0M48.3,59.9l-.4,1.7M50.5,59.9l-.5,1.7M52.8,59.9l-.6,1.7M45.7,63.4l8.4,0M46.6,61.7l-.5,1.7M48.7,61.7l-.4,1.7M51.8,61.7l-.6,1.7M45.2,65.1l8.4,0M47.1,63.4l-.4,1.7M49.9,63.4l-.5,1.7M52.2,63.4l-.5,1.7M44.7,66.9l8.4,0M45.5,65.1l-.5,1.7M48.5,65.1l-.4,1.7M51.6,65.1l-.4,1.7" fill="none" stroke="#462e18" stroke-width=".3" stroke-opacity="0.6"/><path d="M46.8,59.5l8.4,0M46.3,61.2l8.4,0M45.8,62.9l8.4,0M45.4,64.7l8.4,0M44.9,66.4l8.4,0" fill="none" stroke="#cda883" stroke-width=".4" stroke-opacity="0.4"/></g><polyline points="53.6,65.3 53,58.2" fill="none" stroke="#563a1f" stroke-width="1.1" stroke-opacity="1"/><polyline points="49.6,58.2 53,58.2" fill="none" stroke="#704c2f" stroke-width="1.2" stroke-opacity="1"/><polyline points="53,58.2 53,52.2" fill="none" stroke="#5a3a1e" stroke-width=".8" stroke-opacity="1"/><path d="M53,52.8Q55,52.6 57,54L53,55.4Z" fill="url(#rally4-16)" stroke-width=".5"/><circle cx="53" cy="52" r=".6" fill="#e8c460" stroke-width=".4"/><ellipse cx="27.5" cy="92" rx="6.5" ry="2.4" fill="#1f2a0c" stroke="none" opacity="0.25" filter="url(#rally4-4)"/><polygon points="28,92.5 32.7,89.3 32.7,92.2 28,95.4" fill="#1c1006" stroke="none" opacity=".3" filter="url(#rally4-11)"/><polygon points="23.3,85.6 28.4,82.2 23.6,90.2 18.5,93.6" fill="url(#rally4-17)"/><polygon points="23.3,85.6 28.4,82.2 33.2,90.2 28.1,93.6" fill="url(#rally4-18)"/><polygon points="19,93 28,93 23.5,85.5" fill="url(#rally4-17)"/><polyline points="18.5,93.6 23.3,85.6 28.1,93.6" fill="none" stroke="#988767" stroke-width="2.2" stroke-opacity="1"/><polyline points="18.5,93.6 23.3,85.6 28.1,93.6" fill="none" stroke="#f7efdc" stroke-width="1.1" stroke-opacity="1"/><polyline points="23.3,85.6 28.4,82.2" fill="none" stroke="#b6aa8c" stroke-width="1.1" stroke-opacity="1"/><path d="M23.5,87.2L21.7,93H25.3Z" fill="#4a3424" stroke-width=".5"/><path d="M23.5,87.2L21,93L22.2,93Z" fill="#e8dcbc" stroke-width=".4"/><ellipse cx="46.5" cy="99" rx="7.5" ry="2.4" fill="#1f2a0c" stroke="none" opacity="0.25" filter="url(#rally4-4)"/><polygon points="48,99.5 53.5,95.8 53.5,98.7 48,102.4" fill="#1c1006" stroke="none" opacity=".3" filter="url(#rally4-11)"/><polygon points="42.3,90.6 48.2,86.6 42.4,96.7 36.5,100.7" fill="url(#rally4-17)"/><polygon points="42.3,90.6 48.2,86.6 54,96.7 48.1,100.7" fill="url(#rally4-18)"/><polygon points="37,100 48,100 42.5,90.5" fill="url(#rally4-17)"/><polyline points="36.5,100.7 42.3,90.6 48.1,100.7" fill="none" stroke="#988767" stroke-width="2.2" stroke-opacity="1"/><polyline points="36.5,100.7 42.3,90.6 48.1,100.7" fill="none" stroke="#f7efdc" stroke-width="1.1" stroke-opacity="1"/><polyline points="42.3,90.6 48.2,86.6" fill="none" stroke="#b6aa8c" stroke-width="1.1" stroke-opacity="1"/><path d="M42.5,92.6L40.3,100H44.7Z" fill="#4a3424" stroke-width=".5"/><path d="M42.5,92.6L39.4,100L41,100Z" fill="#e8dcbc" stroke-width=".4"/><polyline points="36.5,100.7 42.3,90.6 48.1,100.7" fill="none" stroke="#e2b040" stroke-width=".9" stroke-opacity="1"/><ellipse cx="19.5" cy="101" rx="7.5" ry="2.4" fill="#1f2a0c" stroke="none" opacity="0.25" filter="url(#rally4-4)"/><polygon points="21,101.5 27.2,97.3 27.2,100.2 21,104.4" fill="#1c1006" stroke="none" opacity=".3" filter="url(#rally4-11)"/><polygon points="15.3,91.1 22,86.6 16.2,98.2 9.5,102.7" fill="url(#rally4-17)"/><polygon points="15.3,91.1 22,86.6 27.8,98.2 21.1,102.7" fill="url(#rally4-18)"/><polygon points="10,102 21,102 15.5,91" fill="url(#rally4-17)"/><polyline points="9.5,102.7 15.3,91.1 21.1,102.7" fill="none" stroke="#988767" stroke-width="2.2" stroke-opacity="1"/><polyline points="9.5,102.7 15.3,91.1 21.1,102.7" fill="none" stroke="#f7efdc" stroke-width="1.1" stroke-opacity="1"/><polyline points="15.3,91.1 22,86.6" fill="none" stroke="#b6aa8c" stroke-width="1.1" stroke-opacity="1"/><path d="M15.5,93.4L13.3,102H17.7Z" fill="#4a3424" stroke-width=".5"/><path d="M15.5,93.4L12.4,102L14,102Z" fill="#e8dcbc" stroke-width=".4"/><polyline points="9.5,102.7 15.3,91.1 21.1,102.7" fill="none" stroke="#b8402e" stroke-width=".9" stroke-opacity="1"/><ellipse cx="35" cy="100.5" rx="3" ry="1.2" fill="#1f2a0c" stroke="none" opacity="0.3" filter="url(#rally4-4)"/><polyline points="31,100 31,52" fill="none" stroke="#5a3a1e" stroke-width="1.3" stroke-opacity="1"/><polyline points="30.6,100 30.6,52" fill="none" stroke="#b08a5a" stroke-width=".3" stroke-opacity="0.8"/><polyline points="30.5,54 39.5,54" fill="none" stroke="#5a3a1e" stroke-width=".9" stroke-opacity="1"/><circle cx="31" cy="51.4" r="1" fill="#e8c460" stroke-width=".5"/><path d="M32.2,54.6H39.2V67.6L35.7,64.4L32.2,67.6Z" fill="url(#rally4-19)" stroke-width=".55"/><rect x="31.7" y="54" width="8" height=".9" fill="#d8aa48" stroke-width=".4"/><path d="M35.7,57.9l1,1.1l-1,1.1l-1,-1.1Z" fill="#f0cc6a" stroke="#8a6420" stroke-width=".3"/><ellipse cx="31" cy="100.8" rx="1.3" ry=".8" fill="url(#rally4-20)" stroke-width=".5"/><ellipse cx="32.8" cy="101.3" rx="1" ry=".6" fill="url(#rally4-20)" stroke-width=".5"/><ellipse cx="29.6" cy="101.4" rx=".8" ry=".5" fill="url(#rally4-20)" stroke-width=".5"/><polyline points="13,94 13,78" fill="none" stroke="#5a3a1e" stroke-width=".8" stroke-opacity="1"/><path d="M13.6,78.4H17V84.4L15.3,82.9L13.6,84.4Z" fill="url(#rally4-21)" stroke-width=".55"/><rect x="13.1" y="77.8" width="4.4" height=".9" fill="#d8aa48" stroke-width=".4"/><path d="M15.3,79.3l1,1.1l-1,1.1l-1,-1.1Z" fill="#f0cc6a" stroke="#8a6420" stroke-width=".3"/><circle cx="13" cy="77.6" r=".7" fill="#e8c460" stroke-width=".4"/><polyline points="45,93 45,77" fill="none" stroke="#5a3a1e" stroke-width=".8" stroke-opacity="1"/><path d="M45.6,77.4H49V83.4L47.3,81.9L45.6,83.4Z" fill="url(#rally4-22)" stroke-width=".55"/><rect x="45.1" y="76.8" width="4.4" height=".9" fill="#d8aa48" stroke-width=".4"/><path d="M47.3,78.3l1,1.1l-1,1.1l-1,-1.1Z" fill="#f0cc6a" stroke="#8a6420" stroke-width=".3"/><circle cx="45" cy="76.6" r=".7" fill="#e8c460" stroke-width=".4"/><polyline points="55,103 55,87" fill="none" stroke="#5a3a1e" stroke-width=".8" stroke-opacity="1"/><path d="M55.6,87.4H59V93.4L57.3,91.9L55.6,93.4Z" fill="url(#rally4-23)" stroke-width=".55"/><rect x="55.1" y="86.8" width="4.4" height=".9" fill="#d8aa48" stroke-width=".4"/><path d="M57.3,88.3l1,1.1l-1,1.1l-1,-1.1Z" fill="#f0cc6a" stroke="#8a6420" stroke-width=".3"/><circle cx="55" cy="86.6" r=".7" fill="#e8c460" stroke-width=".4"/><ellipse cx="22" cy="108" rx="1" ry=".6" fill="url(#rally4-20)" stroke-width=".5"/><ellipse cx="23.3" cy="108.4" rx=".7" ry=".4" fill="url(#rally4-20)" stroke-width=".5"/><ellipse cx="20.9" cy="108.5" rx=".6" ry=".4" fill="url(#rally4-20)" stroke-width=".5"/><path d="M20.6,108Q20.4,106 22,104.4Q23.6,106 23.4,108Z" fill="url(#rally4-24)" stroke="#a03a18" stroke-width=".4"/><circle cx="22.5" cy="102" r="1.4" fill="#e8e4dc" stroke="none" opacity=".6" filter="url(#rally4-25)"/><circle cx="24.1" cy="98.8" r="2" fill="#e8e4dc" stroke="none" opacity=".4" filter="url(#rally4-25)"/><polyline points="51.8,108 53,105" fill="none" stroke="#5a3a1e" stroke-width=".6" stroke-opacity="1"/><polyline points="54.2,108 53,105" fill="none" stroke="#5a3a1e" stroke-width=".6" stroke-opacity="1"/><ellipse cx="53" cy="104" rx="2.4" ry="2.6" fill="url(#rally4-26)" stroke-width=".55"/><ellipse cx="53" cy="104" rx="1.4" ry="1.5" fill="#c84a34" stroke-width=".4"/><ellipse cx="53" cy="104" rx=".55" ry=".6" fill="#f3ead2" stroke="none"/><polyline points="15,112 15,105" fill="none" stroke="#5a3a1e" stroke-width=".8" stroke-opacity="1"/><polyline points="12.6,107 17.4,107" fill="none" stroke="#5a3a1e" stroke-width=".7" stroke-opacity="1"/><path d="M14.1,109.8C13.6,108.7 14.1,107.8 14.8,107.7L14.5,107L15.5,107L15.2,107.7C15.9,107.8 16.4,108.7 15.9,109.8Z" fill="url(#rally4-27)" stroke-width=".6"/><path d="M14.7,107.7l.6,0" fill="none" stroke="#6a4a26" stroke-width=".5" stroke-opacity="0.9"/><circle cx="15" cy="104.6" r="1.2" fill="#e2cf9e" stroke-width=".5"/><polyline points="51,111 56,111" fill="none" stroke="#5a3a1e" stroke-width=".8" stroke-opacity="1"/><polyline points="51.6,111.3 52.2,104" fill="none" stroke="#6a4626" stroke-width=".5" stroke-opacity="1"/><path d="M52.2,104l-.4,-1.4l.9,.1Z" fill="#c8ccd0" stroke-width=".3"/><polyline points="52.9,111.3 53.5,104" fill="none" stroke="#6a4626" stroke-width=".5" stroke-opacity="1"/><path d="M53.5,104l-.4,-1.4l.9,.1Z" fill="#c8ccd0" stroke-width=".3"/><polyline points="54.2,111.3 54.8,104" fill="none" stroke="#6a4626" stroke-width=".5" stroke-opacity="1"/><path d="M54.8,104l-.4,-1.4l.9,.1Z" fill="#c8ccd0" stroke-width=".3"/><polyline points="55.5,111.3 56.1,104" fill="none" stroke="#6a4626" stroke-width=".5" stroke-opacity="1"/><path d="M56.1,104l-.4,-1.4l.9,.1Z" fill="#c8ccd0" stroke-width=".3"/><polyline points="50.8,107.5 56.2,107.5" fill="none" stroke="#5a3a1e" stroke-width=".7" stroke-opacity="1"/><polyline points="42.8,111 44,108" fill="none" stroke="#5a3a1e" stroke-width=".6" stroke-opacity="1"/><polyline points="45.2,111 44,108" fill="none" stroke="#5a3a1e" stroke-width=".6" stroke-opacity="1"/><ellipse cx="44" cy="107" rx="2.4" ry="2.6" fill="url(#rally4-26)" stroke-width=".55"/><ellipse cx="44" cy="107" rx="1.4" ry="1.5" fill="#c84a34" stroke-width=".4"/><ellipse cx="44" cy="107" rx=".55" ry=".6" fill="#f3ead2" stroke="none"/><circle cx="30" cy="110.5" r="1.6" fill="url(#rally4-28)" stroke-width=".55"/><circle cx="30" cy="110.5" r=".5" fill="#e8c460" stroke-width=".3"/><circle cx="33.6" cy="110.5" r="1.6" fill="url(#rally4-29)" stroke-width=".55"/><circle cx="33.6" cy="110.5" r=".5" fill="#e8c460" stroke-width=".3"/><circle cx="37.2" cy="110.5" r="1.6" fill="url(#rally4-30)" stroke-width=".55"/><circle cx="37.2" cy="110.5" r=".5" fill="#e8c460" stroke-width=".3"/><polygon points="12,110.5 13.6,109.3 13.6,111.9 12,113" fill="url(#rally4-6)"/><polygon points="9,110.5 12,110.5 12,113 9,113" fill="url(#rally4-9)"/><path d="M9.3,112.7l2.4-2M9,111.7l3,0" fill="none" stroke="#5e3e20" stroke-width=".4" stroke-opacity="0.8"/><polygon points="9,110.5 12,110.5 13.6,109.3 10.6,109.3" fill="url(#rally4-8)"/><path d="M12.5,111.3V114.5A1.5,.6 0 0 0 15.5,114.5V111.3A1.5,.6 0 0 1 12.5,111.3Z" fill="url(#rally4-31)" stroke="none"/><g clip-path="url(#rally4-32)" fill="none"><path d="M12.5,112.9A1.5,.6 0 0 0 15.5,112.9" stroke="#3c3632" stroke-width=".6" stroke-opacity=".8"/><path d="M12.6,111.3l0,3.4M12.7,111.3l0,3.5M12.9,111.3l0,3.6M13.2,111.3l0,3.7M13.6,111.3l0,3.8M14,111.3l0,3.8M14.4,111.3l0,3.8M14.8,111.3l0,3.7M15.1,111.3l0,3.6M15.3,111.3l0,3.5M15.4,111.3l0,3.4" fill="none" stroke="#5e3e20" stroke-width=".3" stroke-opacity="0.5"/><path d="M12.9,111.3l0,3.4M13.1,111.3l0,3.5M13.3,111.3l0,3.6M13.6,111.3l0,3.7M14,111.3l0,3.8M14.3,111.3l0,3.8M14.7,111.3l0,3.8M15.1,111.3l0,3.7M15.4,111.3l0,3.6M15.6,111.3l0,3.5M15.8,111.3l0,3.4" fill="none" stroke="#e1bc8e" stroke-width=".3" stroke-opacity="0.35"/></g><path d="M12.5,111.3V114.5A1.5,.6 0 0 0 15.5,114.5V111.3A1.5,.6 0 0 1 12.5,111.3Z" fill="none"/><ellipse cx="14" cy="111.3" rx="1.5" ry=".6" fill="url(#rally4-33)" stroke-width=".5"/><polyline points="21,115 21,108" fill="none" stroke="#5a3a1e" stroke-width=".8" stroke-opacity="1"/><polyline points="18.6,110 23.4,110" fill="none" stroke="#5a3a1e" stroke-width=".7" stroke-opacity="1"/><path d="M20.1,112.8C19.6,111.7 20.1,110.8 20.8,110.7L20.5,110L21.5,110L21.2,110.7C21.9,110.8 22.4,111.7 21.9,112.8Z" fill="url(#rally4-27)" stroke-width=".6"/><path d="M20.7,110.7l.6,0" fill="none" stroke="#6a4a26" stroke-width=".5" stroke-opacity="0.9"/><circle cx="21" cy="107.6" r="1.2" fill="#e2cf9e" stroke-width=".5"/></g></g></svg>