<svg xmlns="http://www.w3.org/2000/svg" viewBox="0 0 70 67"><defs><linearGradient id="r" x2="0" y2="1"><stop offset="0" stop-color="#fff"/><stop offset=".55" stop-color="#f4f4f2"/><stop offset="1" stop-color="#dadad6"/></linearGradient><radialGradient id="d" cx=".42" cy=".3" r=".8"><stop offset="0" stop-color="#ececea"/><stop offset=".7" stop-color="#d4d4cf"/><stop offset="1" stop-color="#b8b8b2"/></radialGradient><radialGradient id="v" cx=".45" cy=".4" r=".62"><stop offset=".55" stop-color="#000" stop-opacity="0"/><stop offset="1" stop-color="#000" stop-opacity=".26"/></radialGradient><clipPath id="c"><circle cx="35" cy="33.5" r="24.4"/></clipPath></defs><g stroke="#5c5c55" stroke-width=".9" stroke-linejoin="round" stroke-linecap="round"><circle cx="35" cy="34.8" r="31.4" fill="#000" stroke="none" opacity=".12"/><circle cx="35" cy="33.5" r="31" fill="url(#r)" stroke="#b2b2ab" stroke-width=".9"/><circle cx="35" cy="33.5" r="25.6" fill="#d6d6d0" stroke="none"/><circle cx="35" cy="33.5" r="25" fill="url(#d)" stroke="#9a9a93" stroke-width=".9"/><g clip-path="url(#c)"><path d="M8,34L19,17L24,23L28,18L38,34Z" fill="#dcdcd6"/><path d="M19,17L22,26L20,34H38L28,18L24,23Z" fill="#c2c2bb" stroke="none"/><path d="M8,34L19,17L24,23L28,18L38,34" fill="none"/><path d="M16.5,21L19,17L21.4,20.8L19.6,20L18.2,21.6Z" fill="#fff" stroke-width=".5"/><path d="M8,36Q22,28 36,33T62,31V62H8Z" fill="#c6c7b4"/><path d="M8,44Q24,38 40,42T62,40V62H8Z" fill="#d4d6bc"/><path d="M14,44L34,40L40,50L18,56Z" fill="#e6e2c8"/><path d="M14.8,46.4L35.2,42M15.6,48.8L36.4,44M16.4,51.2L37.6,46M17.2,53.6L38.8,48" fill="none" stroke="#a6a69e" stroke-width=".6"/><path d="M14,44L34,40L40,50L18,56Z" fill="none"/><path d="M41,50L54,46L58,54L44,58Z" fill="#a8aa96"/><path d="M45.3,48.7 48.6,56.7" fill="none" stroke="#8c8c84" stroke-width=".6"/><path d="M49.6,47.4 53.2,55.4" fill="none" stroke="#8c8c84" stroke-width=".6"/><rect x="46.3" y="33" width="1.4" height="5" fill="#a6a69e" stroke-width=".6"/><circle cx="47" cy="30.5" r="4.2" fill="#a8aa96" stroke-width=".8"/><circle cx="45.5" cy="29" r="1.5" fill="#d0d3b4" stroke="none"/><rect x="53.3" y="36" width="1.4" height="5" fill="#a6a69e" stroke-width=".6"/><circle cx="54" cy="34" r="3.4" fill="#a8aa96" stroke-width=".8"/><circle cx="52.8" cy="32.8" r="1.2" fill="#d0d3b4" stroke="none"/><path d="M28,37V33H33V37Z" fill="#f2f2ee" stroke-width=".7"/><path d="M27,33.4L30.5,30L34,33.4Z" fill="#a6a69e" stroke-width=".7"/><circle cx="35" cy="33.5" r="24.6" fill="url(#v)" stroke="none"/></g><circle cx="35" cy="33.5" r="24.6" fill="none" stroke="#fff" stroke-width=".8" opacity=".5"/><path d="M7.4,24.5A29,29 0 0 1 55,12.5" fill="none" stroke="#fff" stroke-width="1.6" opacity=".9"/></g></svg>