<svg xmlns="http://www.w3.org/2000/svg" viewBox="0 0 16 16"><defs><linearGradient id="g0" y2=".6"><stop stop-color="#aa9"/><stop offset="1" stop-color="#665"/></linearGradient><path id="p0" d="M3.6,13q-2.4,.8-2.8-1Q.6,10.4 2,10.2"/></defs><g stroke="#322" stroke-width=".5" stroke-linejoin="round" stroke-linecap="round"><use href="#p0" fill="none" stroke-width="1.1"/><use href="#p0" fill="none" stroke="#da9"/><path d="M3,13c-.1-.6 .1-1.8 .6-2.6C4.1,9.6 5,8.8 6,8.4 7,8 8.4,8 9.4,8.2c1,.2 1.9,.7 2.6,1.2 .7,.5 .8,1.1 1.4,1.6 .6,.5 1.7,1 1.9,1.4 .2,.4-.1,.8-.7,1-.6,.2-1.5,.3-2.6,.4-1.1,.1-2.7,.4-4,.4-1.3,0-2.8,0-3.6-.2-.8-.2-1.3-.4-1.4-1Z" fill="url(#g0)"/><ellipse cx="11" cy="8.4" rx="1.4" ry="1.5" fill="#da9"/><circle cx="13.1" cy="11.1" r=".5" fill="#322" stroke="none"/><ellipse cx="15.3" cy="12.5" rx=".4" ry=".3" fill="#d78" stroke="none"/><path d="M6,14.2H7.4m3.2-.2H12" fill="none" stroke="#da9" stroke-width=".7"/></g></svg>