<svg xmlns="http://www.w3.org/2000/svg" viewBox="0 0 16 16"><defs><path id="p0" d="M9.6,11 3.2,4.4"/></defs><g stroke="#322" stroke-width=".5" stroke-linejoin="round" stroke-linecap="round"><path d="M1,11H15v1.2H1Z" fill="#b85"/><use href="#p0" fill="none" stroke-width="2"/><use href="#p0" fill="none" stroke="#963" stroke-width="1.1"/><path d="M1,4.2q.4-1.8 2-2 1.6,0 2,1.4Q4,5.2 2.2,5.2Z" fill="#753"/><ellipse cx="2.4" cy="2.6" rx=".9" ry=".8" fill="#baa" stroke-width=".3"/><ellipse cx="3.9" cy="2.4" rx=".8" ry=".8" fill="#baa" stroke-width=".3"/><ellipse cx="10" cy="10.2" rx="1.2" ry=".8" fill="#ca7" stroke-width=".3"/><path d="M11.6,11l0-5.6" fill="none" stroke-width="1.9"/><path d="M11.6,11l0-5.6" fill="none" stroke="#b85" stroke-width="1"/><path d="M8.6,5.4l4.4,0" fill="none" stroke-width="1.9"/><path d="M8.6,5.4l4.4,0" fill="none" stroke="#b85" stroke-width="1"/><path d="M13.8,11 12,7" fill="none" stroke-width="1.6"/><path d="M13.8,11 12,7" fill="none" stroke="#b85" stroke-width=".7"/><circle cx="3.8" cy="13.4" r="2.2" fill="#b85"/><circle cx="3.8" cy="13.4" r="1.8" fill="none" stroke="#888" stroke-width=".4"/><path d="M2.2,13.4H5.4M3.8,11.8V15" fill="none" stroke="#753"/><circle cx="3.8" cy="13.4" r=".6" fill="#99a" stroke-width=".3"/><circle cx="12.2" cy="13.4" r="2.2" fill="#b85"/><circle cx="12.2" cy="13.4" r="1.8" fill="none" stroke="#888" stroke-width=".4"/><path d="M10.6,13.4h3.2m-1.6-1.6V15" fill="none" stroke="#753"/><circle cx="12.2" cy="13.4" r=".6" fill="#99a" stroke-width=".3"/></g></svg>