<svg xmlns="http://www.w3.org/2000/svg" viewBox="0 0 120 150"><defs><linearGradient id="s" x1="0" y1="0" x2="0" y2="1"><stop offset="0" stop-color="#8fbcd6"/><stop offset="0.45" stop-color="#c9dcd8"/><stop offset="0.72" stop-color="#f4dcac"/><stop offset="1" stop-color="#f1d9a6"/></linearGradient><radialGradient id="g" cx=".78" cy=".2" r=".5"><stop offset="0" stop-color="#fff7d8" stop-opacity="0.95"/><stop offset="1" stop-color="#ffe7a6" stop-opacity="0"/></radialGradient><linearGradient id="h" x1="0" y1="0" x2="0" y2="1"><stop offset="0" stop-color="#a9b98a"/><stop offset="1" stop-color="#c9c99a"/></linearGradient></defs><rect width="120" height="150" fill="url(#s)"/><rect width="120" height="150" fill="url(#g)"/><g fill="#fff" fill-opacity=".75"><ellipse cx="22" cy="36" rx="14" ry="4.5"/><ellipse cx="30" cy="32" rx="9" ry="5"/><ellipse cx="16" cy="33" rx="6" ry="3.5"/><ellipse cx="96" cy="58" rx="13" ry="4"/><ellipse cx="90" cy="55" rx="7" ry="4.2"/><ellipse cx="102" cy="55" rx="6" ry="3.2"/><ellipse cx="62" cy="22" rx="10" ry="2.6" fill-opacity=".6"/></g><path d="M0,118Q18,104 36,112T72,108T120,110V132H0Z" fill="#b5c4a6" fill-opacity=".55"/><path d="M0,126Q24,114 48,121T96,118T120,120V150H0Z" fill="url(#h)" fill-opacity=".75"/></svg>