<svg xmlns="http://www.w3.org/2000/svg" viewBox="0 0 120 140"><g stroke="#3a2a14" stroke-width="1.4" stroke-linejoin="round" stroke-linecap="round"><ellipse cx="62" cy="130" rx="54" ry="6" fill="rgba(0,0,0,0.18)" stroke="none"/><path d="M56,104 L60,126" fill="none" stroke="#3a2a14" stroke-width="13.8"/><path d="M56,104 L60,126" fill="none" stroke="#5f5f66" stroke-width="11"/><path d="M94,104 L100,126" fill="none" stroke="#3a2a14" stroke-width="13.8"/><path d="M94,104 L100,126" fill="none" stroke="#5f5f66" stroke-width="11"/><path d="M108,88 C116,92 118,104 112,112" fill="none" stroke="#3a2a14" stroke-width="4"/><path d="M108,88 C116,92 118,104 112,112" fill="none" stroke="#5f5f66" stroke-width="1.8"/><path d="M112,112 L110,118 M112,112 L116,116" fill="none" stroke="#3a2a14" stroke-width="2.4"/><path d="M32,88 C30,60 52,48 76,48 C100,48 112,66 110,92 C108,108 94,114 70,114 C46,114 32,106 32,88 Z" fill="#8a8a90"/><path d="M76,48 C100,48 112,66 110,92 C108,108 94,114 70,114 C92,110 100,98 100,84 C100,66 90,52 76,48Z" fill="#5f5f66" stroke="none"/><path d="M40,80 C40,64 52,54 66,52 C52,58 46,68 46,82 C42,84 40,84 40,80Z" fill="#b4b4ba" stroke="none"/><path d="M60,66 C70,62 86,64 94,72" fill="none" stroke="#5f5f66" stroke-width="1.2"/><path d="M44,108 L38,128" fill="none" stroke="#3a2a14" stroke-width="14.8"/><path d="M44,108 L38,128" fill="none" stroke="#8a8a90" stroke-width="12"/><path d="M44,108 L38,128" fill="none" stroke="#5f5f66" stroke-width="4.6" transform="translate(2.6,2.4)"/><path d="M84,108 L88,128" fill="none" stroke="#3a2a14" stroke-width="14.8"/><path d="M84,108 L88,128" fill="none" stroke="#8a8a90" stroke-width="12"/><path d="M84,108 L88,128" fill="none" stroke="#5f5f66" stroke-width="4.6" transform="translate(2.6,2.4)"/><path d="M30,129 L44,129" fill="none" stroke="#3a2a14" stroke-width="3"/><path d="M32,128 L34,128 M36,128 L38,128 M40,128 L42,128" fill="none" stroke="#b4b4ba" stroke-width="2"/><path d="M82,129 L96,129" fill="none" stroke="#3a2a14" stroke-width="3"/><path d="M84,128 L86,128 M88,128 L90,128 M92,128 L94,128" fill="none" stroke="#b4b4ba" stroke-width="2"/><path d="M40,56 C24,56 12,68 14,86 C16,96 26,102 38,100 C48,98 52,86 50,72 C48,62 44,56 40,56 Z" fill="#8a8a90"/><path d="M42,58 C50,64 52,76 48,90 C44,98 38,100 34,100 C42,96 44,86 44,72 C44,64 42,60 42,58Z" fill="#5f5f66" stroke="none"/><path d="M46,58 C64,50 70,70 62,86 C56,96 44,96 40,86 C46,80 48,70 46,58 Z" fill="#8a8a90"/><path d="M48,60 C62,56 66,70 60,84 C56,92 48,94 44,88 C52,84 54,72 50,62Z" fill="#5f5f66" stroke="none"/><path d="M50,62 C58,60 62,68 60,76 C58,70 54,66 50,64Z" fill="#b4b4ba" stroke="none"/><circle cx="24" cy="76" r="2.2" fill="#3a2a14" stroke="none"/><circle cx="24.6" cy="75.4" r="0.8" fill="#f0e4e8" stroke="none"/><path d="M30,94 C22,102 10,100 6,92 C12,98 22,96 26,88 Z" fill="#f1e7c8"/><path d="M36,98 C30,106 20,110 12,106 C20,106 28,102 32,94 Z" fill="#e3d6ae"/><path d="M20,90 C8,92 2,80 4,64 C6,54 2,48 6,38 L14,38 C12,48 14,56 14,66 C14,76 16,84 24,84 Z" fill="#8a8a90"/><path d="M14,66 C14,76 16,84 24,84 L20,90 C12,90 8,82 8,70 C8,60 10,52 10,40 L8,40 C6,50 6,58 6,66 C6,78 12,86 16,82Z" fill="#5f5f66" stroke="none"/><path d="M8,40 C10,46 12,46 13,40 L12,38 L8,38Z" fill="#b4b4ba" stroke="none"/><path d="M8,56 L13,56 M7,66 L13,66 M8,76 L15,76" fill="none" stroke="#5f5f66" stroke-width="1.1"/></g></svg>