<svg xmlns="http://www.w3.org/2000/svg" viewBox="0 0 120 140"><defs><filter id="teu1-shadow" filterUnits="userSpaceOnUse" x="-30" y="80" width="180" height="80"><feGaussianBlur stdDeviation="2.4"/></filter><filter id="teu1-soft" filterUnits="userSpaceOnUse" x="-150" y="-150" width="420" height="440"><feGaussianBlur stdDeviation=".9"/></filter><radialGradient id="teu1-skin" cx="0.35" cy="0.3" r="0.9"><stop offset="0" stop-color="#fbe0c0"/><stop offset="0.5" stop-color="#e8b588"/><stop offset="1" stop-color="#b67b52"/></radialGradient><filter id="teu1-vol" filterUnits="userSpaceOnUse" x="-150" y="-150" width="420" height="440" color-interpolation-filters="sRGB"><feOffset in="SourceAlpha" dx="1" dy="1" result="a1"/><feOffset in="SourceAlpha" dx="2.4" dy="2.4" result="a2"/><feComposite in="a1" in2="SourceAlpha" operator="in" result="b1"/><feComposite in="b1" in2="a2" operator="out" result="b2"/><feGaussianBlur in="b2" stdDeviation=".6" result="b3"/><feFlood flood-color="#fff0cc" flood-opacity=".55"/><feComposite in2="b3" operator="in" result="lit"/><feOffset in="SourceAlpha" dx="-.8" dy="-.8" result="d1"/><feOffset in="SourceAlpha" dx="-3.6" dy="-3.6" result="d2"/><feComposite in="d1" in2="SourceAlpha" operator="in" result="e1"/><feComposite in="e1" in2="d2" operator="out" result="e2"/><feGaussianBlur in="e2" stdDeviation="1.3" result="e3"/><feFlood flood-color="#2a1406" flood-opacity=".38"/><feComposite in2="e3" operator="in" result="dk"/><feMerge result="m"><feMergeNode in="dk"/><feMergeNode in="lit"/></feMerge><feComposite in="m" in2="SourceAlpha" operator="in" result="mc"/><feMerge><feMergeNode in="SourceGraphic"/><feMergeNode in="mc"/></feMerge></filter><linearGradient id="teu1-furd" x1="0.15" y1="0" x2="0.85" y2="1"><stop offset="0" stop-color="#6e4a2c"/><stop offset="0.5" stop-color="#4c3119"/><stop offset="1" stop-color="#2a1a0a"/></linearGradient><linearGradient id="teu1-fur" x1="0.15" y1="0" x2="0.85" y2="1"><stop offset="0" stop-color="#b58a5e"/><stop offset="0.5" stop-color="#7c5532"/><stop offset="1" stop-color="#40280f"/></linearGradient><clipPath id="teu1-c1"><path d="M36.7,118.4 L27.4,118.4 L27.6,114.4 L29,115.6 L30.4,114 L32,115.6 L33.4,114 L36.5,115.2Z"/></clipPath><clipPath id="teu1-c2"><path d="M103.7,116.4 L94.4,116.4 L94.6,112.4 L96,113.6 L97.4,112 L99,113.6 L100.4,112 L103.5,113.2Z"/></clipPath><filter id="teu1-soft2" filterUnits="userSpaceOnUse" x="-150" y="-150" width="420" height="440"><feGaussianBlur stdDeviation="1.8"/></filter><clipPath id="teu1-c3"><path d="M39,50 C42,38 66,34 79,44 L84,60 C87,72 80,82 72,85 L50,85 C43,79 39,70 39,60Z"/></clipPath><clipPath id="teu1-c4"><path d="M45,78 L77,77 L81,92 L77,98 L73,94 L69,101 L65,95 L60,102 L56,95 L51,100 L48,94 L43,98 Z"/></clipPath><linearGradient id="teu1-lead" x1="0.15" y1="0" x2="0.85" y2="1"><stop offset="0" stop-color="#7a5230"/><stop offset="0.5" stop-color="#55361a"/><stop offset="1" stop-color="#34200e"/></linearGradient><linearGradient id="teu1-steel" x1="0.15" y1="0" x2="0.85" y2="1"><stop offset="0" stop-color="#fbfcfd"/><stop offset="0.25" stop-color="#d0d6db"/><stop offset="0.55" stop-color="#959ea7"/><stop offset="0.82" stop-color="#59616a"/><stop offset="1" stop-color="#959da4"/></linearGradient><linearGradient id="teu1-wood" x1="0.15" y1="0" x2="0.85" y2="1"><stop offset="0" stop-color="#d1a06c"/><stop offset="0.5" stop-color="#9c6c3e"/><stop offset="1" stop-color="#5e3c1c"/></linearGradient><clipPath id="teu1-c5"><path d="M85,29 Q93,20 99,15 Q103,8 110,8 Q117,9 117,16 Q116,23 108,25 Q102,26 98,26 Q92,30 89,34Z"/></clipPath><radialGradient id="teu1-steelr" cx="0.36" cy="0.3" r="0.8"><stop offset="0" stop-color="#ffffff"/><stop offset="0.3" stop-color="#d6dce1"/><stop offset="0.75" stop-color="#8d959d"/><stop offset="1" stop-color="#4b525a"/></radialGradient><linearGradient id="teu1-ginger" x1="0.15" y1="0" x2="0.85" y2="1"><stop offset="0" stop-color="#e08a50"/><stop offset="0.5" stop-color="#b45a2a"/><stop offset="1" stop-color="#6e2f12"/></linearGradient><clipPath id="teu1-c6"><path d="M42,25 Q41,15.5 51,15.5 Q62,16.5 61,31 Q62,39.6 59,45 Q55,43 53,46 Q51,35 48,31 Z"/></clipPath><clipPath id="teu1-c7"><path d="M57.4,25.5 Q59.5,34 53.1,40.7 Q49,43.5 46.5,42.5 Q40,40.5 40.8,29 Q43,30.5 44.4,31.6 Q47,35.4 50.2,31.6 Q53,29.4 57.4,25.5Z"/></clipPath></defs><g stroke-linejoin="round" stroke-linecap="round"><ellipse cx="65" cy="128" rx="40" ry="6" fill="#2b1a0b" fill-opacity=".32" filter="url(#teu1-shadow)"/><ellipse cx="63" cy="128" rx="22" ry="3" fill="#2b1a0b" fill-opacity=".18" filter="url(#teu1-soft)"/><g filter="url(#teu1-vol)"><path d="M40.4,45.8 L37.6,48.2 L34.9,50.7 L32.3,53.3 L29.7,56 L27.4,58.4 L24.3,60 L21.6,63 L18.5,65.5 L17.4,66.6 L17,68 L17.5,69.5 L18.6,70.6 L20,71 L21.5,70.5 L25.1,69 L29.1,68 L32.6,65.6 L35.9,63.2 L38.9,61.1 L41.9,58.9 L44.8,56.6 L47.6,54.2 L49.2,51.8 L49.4,49 L48.2,46.4 L45.8,44.8 L43,44.6Z" fill="url(#teu1-skin)" stroke="#3b2a17" stroke-opacity=".75" stroke-width="1"/><path d="M39.6,50.6 L36.9,53 L34.1,55.5 L31.4,58 L28.9,60.4 L25.6,62.2 L22.6,64.7" fill="none" stroke="#f8dab8" stroke-width="2.4" stroke-opacity=".55"/></g><g filter="url(#teu1-vol)"><path d="M20.1,66.4 L13.8,66.2 L9.2,67.3 L9.2,68.7 L13.8,68.5 L8.8,70 L9,71.5 L13.8,70.8 L9.6,72.7 L10.1,74 L15.3,72.9 L13.2,75.2 L14.5,76.1 L20.1,73.6Z" fill="url(#teu1-skin)" stroke="#3b2a17" stroke-width="0.8" stroke-opacity=".75"/></g><circle cx="16" cy="69" r="1.7" fill="#fff3dc" stroke="none" fill-opacity="0.35"/><path d="M36,56 Q30,60 26,64" fill="none" stroke="#fff3dc" stroke-width="1.3" stroke-opacity="0.4" filter="url(#teu1-soft)"/><g filter="url(#teu1-vol)"><path d="M50.9,76.9 L48.4,79.5 L45.8,82.1 L43.4,84.8 L40.9,87.5 L38.6,90.3 L36.3,93.2 L33.2,96.9 L30.8,101.4 L29.7,105.1 L29.4,109.1 L28.5,112.9 L27.4,116.6 L27.2,118.6 L28,120.4 L29.6,121.6 L31.6,121.8 L33.4,121 L34.6,119.4 L36.3,115.9 L38.2,112.5 L40.7,109.3 L42.4,105.8 L42.8,103.1 L44.8,101.7 L47.7,99.4 L50.5,97.1 L53.2,94.6 L55.9,92.2 L58.5,89.6 L61.1,87.1 L62.9,83.9 L62.9,80.1 L61.1,76.9 L57.9,75.1 L54.1,75.1Z" fill="url(#teu1-skin)" stroke="#3b2a17" stroke-opacity=".75" stroke-width="1"/><path d="M51.2,82.3 L48.7,84.9 L46.1,87.5 L43.6,90.2 L41.1,92.9 L38.7,95.6 L35.9,98.6 L34.1,102.6 L32.8,106.3 L31.9,110 L30.7,113.7" fill="none" stroke="#f8dab8" stroke-width="3.1" stroke-opacity=".55"/></g><path d="M50,86 L40,98" fill="none" stroke="#fff3dc" stroke-width="1.6" stroke-opacity="0.4" filter="url(#teu1-soft)"/><path d="M34,104 Q38,110 34,116" fill="none" stroke="#b9805a" stroke-width="1.4" stroke-opacity="0.5" filter="url(#teu1-soft)"/><g filter="url(#teu1-vol)"><path d="M35.9,117.5 L28.2,117.5 Q27.8,120.4 26.9,120.6 Q21.7,121.4 22.9,124.6 L35.6,125.2 Q37.1,122 35.9,117.5Z" fill="url(#teu1-furd)" stroke="#3b2a17" stroke-width="0.9" stroke-opacity=".75"/></g><path d="M35.5,124.6 L23.3,124.1" fill="none" stroke="#24160a" stroke-width="1.4" stroke-opacity="0.8"/><ellipse cx="27.4" cy="120.6" rx="2.4" ry="0.9" fill="#ffe8c8" fill-opacity="0.45" stroke="none" filter="url(#teu1-soft)"/><g filter="url(#teu1-vol)"><path d="M36.7,118.4 L27.4,118.4 L27.6,114.4 L29,115.6 L30.4,114 L32,115.6 L33.4,114 L36.5,115.2Z" fill="url(#teu1-fur)" stroke="#3b2a17" stroke-width="1" stroke-opacity=".75"/><g clip-path="url(#teu1-c1)"><path d="M25.4,112 L26.4,120.4 M29.7,112 L30.8,120.4 M34.1,112 L35.1,120.4 M38.5,112 L39.5,120.4 " fill="none" stroke="#2e1c0c" stroke-width="0.8" stroke-opacity="0.6" stroke-dasharray="2.6 1.2" stroke-dashoffset="0" stroke-linecap="round"/><path d="M26.8,112 L27.9,120.4 M31.2,112 L32.2,120.4 M35.6,112 L36.6,120.4 " fill="none" stroke="#d8b58a" stroke-width="0.65" stroke-opacity="0.6" stroke-dasharray="2.6 1.6" stroke-dashoffset="1.3" stroke-linecap="round"/><path d="M28.3,112 L29.3,120.4 M32.6,112 L33.7,120.4 M37,112 L38,120.4 " fill="none" stroke="#2e1c0c" stroke-width="0.8" stroke-opacity="0.6" stroke-dasharray="2.6 2.0" stroke-dashoffset="2.6" stroke-linecap="round"/></g></g><g filter="url(#teu1-vol)"><path d="M62.9,87.1 L65.5,89.6 L68.1,92.2 L70.8,94.6 L73.5,97.1 L76.3,99.4 L79.2,101.7 L81.6,103.6 L83.1,106.7 L85.6,109.7 L88.7,112.3 L91.3,115.2 L93.8,118.2 L95.3,119.5 L97.3,119.8 L99.2,119.2 L100.5,117.7 L100.8,115.7 L100.2,113.8 L98.3,110.4 L96.5,106.9 L95.2,103.1 L93.3,99.7 L90.4,96.4 L87.7,93.2 L85.4,90.3 L83.1,87.5 L80.6,84.8 L78.2,82.1 L75.6,79.5 L73.1,76.9 L69.9,75.1 L66.1,75.1 L62.9,76.9 L61.1,80.1 L61.1,83.9Z" fill="url(#teu1-skin)" stroke="#3b2a17" stroke-opacity=".75" stroke-width="1"/><path d="M68.3,86.8 L70.9,89.3 L73.5,91.9 L76.2,94.4 L78.9,96.9 L81.6,99.3 L84.1,101.6 L86,104.7 L88.3,107.9 L90.9,110.8 L93.3,113.9" fill="none" stroke="#f8dab8" stroke-width="3.1" stroke-opacity=".55"/></g><path d="M88,104 Q92,108 94,114" fill="none" stroke="#b9805a" stroke-width="1.4" stroke-opacity="0.5" filter="url(#teu1-soft)"/><g filter="url(#teu1-vol)"><path d="M102.9,115.5 L95.2,115.5 Q94.8,118.4 93.9,118.6 Q88.7,119.4 89.9,122.6 L102.6,123.2 Q104.1,120 102.9,115.5Z" fill="url(#teu1-furd)" stroke="#3b2a17" stroke-width="0.9" stroke-opacity=".75"/></g><path d="M102.5,122.6 L90.3,122.1" fill="none" stroke="#24160a" stroke-width="1.4" stroke-opacity="0.8"/><ellipse cx="94.4" cy="118.6" rx="2.4" ry="0.9" fill="#ffe8c8" fill-opacity="0.45" stroke="none" filter="url(#teu1-soft)"/><g filter="url(#teu1-vol)"><path d="M103.7,116.4 L94.4,116.4 L94.6,112.4 L96,113.6 L97.4,112 L99,113.6 L100.4,112 L103.5,113.2Z" fill="url(#teu1-fur)" stroke="#3b2a17" stroke-width="1" stroke-opacity=".75"/><g clip-path="url(#teu1-c2)"><path d="M92.4,110 L93.4,118.4 M96.8,110 L97.8,118.4 M101.1,110 L102.1,118.4 M105.5,110 L106.5,118.4 " fill="none" stroke="#2e1c0c" stroke-width="0.8" stroke-opacity="0.6" stroke-dasharray="2.6 1.2" stroke-dashoffset="0" stroke-linecap="round"/><path d="M93.9,110 L94.9,118.4 M98.2,110 L99.2,118.4 M102.6,110 L103.6,118.4 " fill="none" stroke="#d8b58a" stroke-width="0.65" stroke-opacity="0.6" stroke-dasharray="2.6 1.6" stroke-dashoffset="1.3" stroke-linecap="round"/><path d="M95.3,110 L96.3,118.4 M99.7,110 L100.7,118.4 M104,110 L105,118.4 " fill="none" stroke="#2e1c0c" stroke-width="0.8" stroke-opacity="0.6" stroke-dasharray="2.6 2.0" stroke-dashoffset="2.6" stroke-linecap="round"/></g></g><g filter="url(#teu1-vol)"><path d="M39,50 C42,38 66,34 79,44 L84,60 C87,72 80,82 72,85 L50,85 C43,79 39,70 39,60Z" fill="url(#teu1-skin)" stroke="#3b2a17" stroke-width="1" stroke-opacity=".75"/><g clip-path="url(#teu1-c3)"><path d="M44,46 Q56,40 62,46 Q54,52 46,58Z" fill="#fff2d8" stroke="none" fill-opacity="0.45" filter="url(#teu1-soft2)"/><path d="M48,58 Q56,62 61,57 M62,60 Q64,68 61,76 M50,66 Q56,68 60,66 M50,74 Q56,76 60,74 M76,52 Q81,64 76,78" fill="none" stroke="#7a4026" stroke-width="1.2" stroke-opacity="0.5" filter="url(#teu1-soft)"/></g></g><path d="M64,56 Q70,60 74,56" fill="none" stroke="#fff3dc" stroke-width="1" stroke-opacity="0.4" filter="url(#teu1-soft)"/><circle cx="52" cy="61" r="0.6" fill="#7a4026" stroke="none" fill-opacity="0.7"/><circle cx="68" cy="59" r="0.6" fill="#7a4026" stroke="none" fill-opacity="0.7"/><path d="M55,52 l-1,2 M57,53 l.4,2 M59,52 l1,2 M56,56 l-.6,1.8 M58,56 l.6,1.8" fill="none" stroke="#7a3a16" stroke-width="0.6" stroke-opacity="0.7"/><g filter="url(#teu1-vol)"><path d="M45,78 L77,77 L81,92 L77,98 L73,94 L69,101 L65,95 L60,102 L56,95 L51,100 L48,94 L43,98 Z" fill="url(#teu1-fur)" stroke="#3b2a17" stroke-width="1" stroke-opacity=".75"/><g clip-path="url(#teu1-c4)"><path d="M41,75 L44.5,104 M45.4,75 L48.8,104 M49.7,75 L53.2,104 M54.1,75 L57.5,104 M58.4,75 L61.9,104 M62.8,75 L66.2,104 M67.1,75 L70.6,104 M71.5,75 L74.9,104 M75.8,75 L79.3,104 M80.2,75 L83.6,104 " fill="none" stroke="#2e1c0c" stroke-width="0.8" stroke-opacity="0.6" stroke-dasharray="2.6 1.2" stroke-dashoffset="0" stroke-linecap="round"/><path d="M42.5,75 L45.9,104 M46.8,75 L50.3,104 M51.2,75 L54.6,104 M55.5,75 L59,104 M59.9,75 L63.3,104 M64.2,75 L67.7,104 M68.6,75 L72,104 M72.9,75 L76.4,104 M77.3,75 L80.7,104 M81.6,75 L85.1,104 " fill="none" stroke="#d8b58a" stroke-width="0.65" stroke-opacity="0.6" stroke-dasharray="2.6 1.6" stroke-dashoffset="1.3" stroke-linecap="round"/><path d="M43.9,75 L47.4,104 M48.3,75 L51.7,104 M52.6,75 L56.1,104 M57,75 L60.4,104 M61.3,75 L64.8,104 M65.7,75 L69.1,104 M70,75 L73.5,104 M74.4,75 L77.8,104 M78.7,75 L82.2,104 " fill="none" stroke="#2e1c0c" stroke-width="0.8" stroke-opacity="0.6" stroke-dasharray="2.6 2.0" stroke-dashoffset="2.6" stroke-linecap="round"/><path d="M47,79 L60,79 L54,90Z" fill="#fff2d8" stroke="none" fill-opacity="0.45" filter="url(#teu1-soft2)"/></g></g><g filter="url(#teu1-vol)"><path d="M44,76 L78,75 L78,79.4 L44,80.4Z" fill="url(#teu1-lead)" stroke="#3b2a17" stroke-width="0.8" stroke-opacity=".75"/></g><path d="M44.5,77 L77.5,76" fill="none" stroke="#9a6a3a" stroke-width="0.5" stroke-opacity="0.7"/><g filter="url(#teu1-vol)"><path d="M54.3,74.6 L59.5,74.6 L59.5,81 L54.3,81Z" fill="url(#teu1-steel)" stroke="#3b2a17" stroke-width="0.8" stroke-opacity=".75"/></g><path d="M55.7,76.2 L58.1,76.2 L58.1,79.4 L55.7,79.4Z" fill="none" stroke="#5a3a10" stroke-width="0.6" stroke-opacity="0.8"/><circle cx="55.5" cy="75.6" r="0.6" fill="#fff4cc" stroke="none" fill-opacity="0.9"/><g filter="url(#teu1-vol)"><path d="M69.9,42.8 L73.3,40.8 L76.8,38.9 L80.3,37.1 L83.9,35.5 L85.6,35.9 L84.5,34.1 L85.6,29.6 L85.7,25.3 L86.1,23.6 L87.2,22.3 L88.7,21.7 L90.4,22.1 L91.7,23.2 L92.3,24.7 L93.1,29 L94.8,33.3 L94.4,40.1 L89.3,44.5 L86.1,46.9 L82.8,49.1 L79.5,51.2 L76.1,53.2 L73,54 L70,53.3 L67.8,51.1 L67,48 L67.7,45Z" fill="url(#teu1-skin)" stroke="#3b2a17" stroke-opacity=".75" stroke-width="1"/><path d="M75.1,43.7 L78.5,41.8 L81.9,39.9 L85.4,38 L88.1,37.1 L87.4,33.8 L87.7,29.5" fill="none" stroke="#f8dab8" stroke-width="2.6" stroke-opacity=".55"/></g><path d="M76,46 Q82,42 86,40" fill="none" stroke="#fff3dc" stroke-width="1.6" stroke-opacity="0.45" filter="url(#teu1-soft)"/><g filter="url(#teu1-vol)"><path d="M80,42.6 L88,35 L91.6,39 L83.8,46.4Z" fill="url(#teu1-steel)" stroke="#3b2a17" stroke-width="0.8" stroke-opacity=".75"/></g><path d="M81.6,42.4 L88.4,36.4" fill="none" stroke="#ffffff" stroke-width="0.6" stroke-opacity="0.7"/><g filter="url(#teu1-vol)"><path d="M85,29 Q93,20 99,15 Q103,8 110,8 Q117,9 117,16 Q116,23 108,25 Q102,26 98,26 Q92,30 89,34Z" fill="url(#teu1-wood)" stroke="#3b2a17" stroke-width="1" stroke-opacity=".75"/><g clip-path="url(#teu1-c5)"><path d="M83,7 Q88.5,6.5 94,7 Q99.5,7.5 105,7 Q110.5,6.5 116,7 Q121.5,7.5 127,7 M83,9.8 Q88.5,9.5 94,9.8 Q99.5,10.1 105,9.8 Q110.5,9.5 116,9.8 Q121.5,10.1 127,9.8 M83,12.6 Q88.5,12 94,12.6 Q99.5,13.2 105,12.6 Q110.5,12 116,12.6 Q121.5,13.2 127,12.6 M83,15.4 Q88.5,14.6 94,15.4 Q99.5,16.2 105,15.4 Q110.5,14.6 116,15.4 Q121.5,16.2 127,15.4 M83,18.2 Q88.5,17.7 94,18.2 Q99.5,18.7 105,18.2 Q110.5,17.7 116,18.2 Q121.5,18.7 127,18.2 M83,21 Q88.5,20.5 94,21 Q99.5,21.5 105,21 Q110.5,20.5 116,21 Q121.5,21.5 127,21 M83,23.8 Q88.5,23.4 94,23.8 Q99.5,24.2 105,23.8 Q110.5,23.4 116,23.8 Q121.5,24.2 127,23.8 M83,26.6 Q88.5,26 94,26.6 Q99.5,27.2 105,26.6 Q110.5,26 116,26.6 Q121.5,27.2 127,26.6 M83,29.4 Q88.5,29.1 94,29.4 Q99.5,29.7 105,29.4 Q110.5,29.1 116,29.4 Q121.5,29.7 127,29.4 M83,32.2 Q88.5,31.3 94,32.2 Q99.5,33.1 105,32.2 Q110.5,31.3 116,32.2 Q121.5,33.1 127,32.2 M83,35 Q88.5,34.3 94,35 Q99.5,35.7 105,35 Q110.5,34.3 116,35 Q121.5,35.7 127,35 " fill="none" stroke="#3a2210" stroke-width="0.5" stroke-opacity="0.45"/><path d="M100,11 Q108,8 112,12 Q106,13 101,17Z" fill="#fff2d8" stroke="none" fill-opacity="0.45" filter="url(#teu1-soft2)"/></g></g><g filter="url(#teu1-vol)"><circle cx="106" cy="12" r="1.4" fill="url(#teu1-steelr)" stroke="#3b2a17" stroke-width="0.5" stroke-opacity=".75"/></g><g filter="url(#teu1-vol)"><circle cx="112" cy="15" r="1.4" fill="url(#teu1-steelr)" stroke="#3b2a17" stroke-width="0.5" stroke-opacity=".75"/></g><g filter="url(#teu1-vol)"><circle cx="110" cy="21" r="1.4" fill="url(#teu1-steelr)" stroke="#3b2a17" stroke-width="0.5" stroke-opacity=".75"/></g><g filter="url(#teu1-vol)"><circle cx="103" cy="21" r="1.4" fill="url(#teu1-steelr)" stroke="#3b2a17" stroke-width="0.5" stroke-opacity=".75"/></g><g filter="url(#teu1-vol)"><circle cx="98" cy="19" r="1.4" fill="url(#teu1-steelr)" stroke="#3b2a17" stroke-width="0.5" stroke-opacity=".75"/></g><g filter="url(#teu1-vol)"><ellipse cx="88" cy="28" rx="4.4" ry="3.9" fill="url(#teu1-skin)" stroke="#3b2a17" stroke-width="0.8" stroke-opacity=".75" transform="rotate(-40 88 28)"/></g><path d="M85.8,27.7 l-1.6,1.3 M86.9,28.9 l-1.6,1.3 M87.9,30.2 l-1.6,1.3 " fill="none" stroke="#b9805a" stroke-width="0.6" stroke-opacity="0.75"/><circle cx="86.5" cy="26.3" r="1.3" fill="#fff3dc" stroke="none" fill-opacity="0.5"/><g filter="url(#teu1-vol)"><path d="M42,25 Q41,15.5 51,15.5 Q62,16.5 61,31 Q62,39.6 59,45 Q55,43 53,46 Q51,35 48,31 Z" fill="url(#teu1-ginger)" stroke="#3b2a17" stroke-width="0.9" stroke-opacity=".75"/></g><g clip-path="url(#teu1-c6)"><path d="M54,25 Q58,36 55,44 M55.6,26 Q58.8,36 56.2,44 M57.2,27 Q59.6,36 57.4,44 M58.8,28 Q60.4,36 58.6,44 " fill="none" stroke="#5a200a" stroke-width="0.6" stroke-opacity="0.6"/><path transform="translate(-.8,0)" d="M54,25 Q58,36 55,44 M55.6,26 Q58.8,36 56.2,44 M57.2,27 Q59.6,36 57.4,44 M58.8,28 Q60.4,36 58.6,44 " fill="none" stroke="#f0a070" stroke-width="0.5" stroke-opacity="0.5"/></g><g filter="url(#teu1-vol)"><ellipse cx="50" cy="27" rx="8.5" ry="9.5" fill="url(#teu1-skin)" stroke="#3b2a17" stroke-width="1" stroke-opacity=".75"/><path d="M51.5,18.7 Q57.7,27 51.5,35.3 Q54.7,27 51.5,18.7Z" fill="#b9805a" stroke="none" fill-opacity="0.7" filter="url(#teu1-soft)"/><ellipse cx="57" cy="28" rx="1.8" ry="2.6" fill="url(#teu1-skin)" stroke="#3b2a17" stroke-width="0.8" stroke-opacity=".75"/></g><path d="M56.6,26.8 Q57.7,28 56.7,29.4" fill="none" stroke="#b9805a" stroke-width="0.7" stroke-opacity="0.8"/><ellipse cx="45.6" cy="30" rx="2.4" ry="1.6" fill="#d26a4a" fill-opacity="0.35" stroke="none" filter="url(#teu1-soft)"/><ellipse cx="48.2" cy="24.8" rx="4.5" ry="1.3" fill="#7a4a2a" fill-opacity="0.25" stroke="none" filter="url(#teu1-soft)"/><ellipse cx="45.7" cy="26.5" rx="1" ry="1.4" fill="#3b2a17"/><ellipse cx="51.3" cy="26.5" rx="1.1" ry="1.5" fill="#3b2a17"/><circle cx="45.4" cy="26" r="0.3" fill="#fff" stroke="none" fill-opacity="0.9"/><circle cx="51" cy="26" r="0.4" fill="#fff" stroke="none" fill-opacity="0.9"/><path d="M43.8,23.4 L47.4,24.2 M49.4,24.2 L53.4,23.2" fill="none" stroke="#7a3010" stroke-width="1.3" stroke-opacity="0.95"/><path d="M43.4,27 Q41.4,30 43.8,30.6" fill="none" stroke="#b9805a" stroke-width="1.1" stroke-opacity="0.9"/><path d="M43,27.2 Q42.1,29 42.7,29.8" fill="none" stroke="#f8dab8" stroke-width="0.6" stroke-opacity="0.8"/><path d="M44.4,32.6 Q47,33.6 49.4,32.4" fill="none" stroke="#8a4a30" stroke-width="1" stroke-opacity="0.9"/><g filter="url(#teu1-vol)"><path d="M41,26 Q40,15.7 50,15.9 Q60.5,16.1 59.4,28 Q57,23 54,23 Q49,20.6 46,22.8 Q43,22.4 41,26Z" fill="url(#teu1-ginger)" stroke="#3b2a17" stroke-width="0.9" stroke-opacity=".75"/></g><path d="M44,18.9 Q49,16.5 55,18.1 M46,20.7 Q51,18.5 57,20.5" fill="none" stroke="#f0a070" stroke-width="0.6" stroke-opacity="0.7"/><g filter="url(#teu1-vol)"><path d="M57.4,25.5 Q59.5,34 53.1,40.7 Q49,43.5 46.5,42.5 Q40,40.5 40.8,29 Q43,30.5 44.4,31.6 Q47,35.4 50.2,31.6 Q53,29.4 57.4,25.5Z" fill="url(#teu1-ginger)" stroke="#3b2a17" stroke-width="0.9" stroke-opacity=".75"/></g><g clip-path="url(#teu1-c7)"><path d="M42.1,32.2 Q42.9,34.6 41.1,39.8 M44.4,31.8 Q45.2,34.6 43.7,40.7 M46.7,31.4 Q47.5,34.6 46.4,41.6 M49.1,31 Q49.9,34.6 49.1,42.5 M51.4,31.4 Q52.2,34.6 51.7,41.6 M53.7,31.8 Q54.5,34.6 54.4,40.7 M56,32.2 Q56.8,34.6 57,39.8 " fill="none" stroke="#5a200a" stroke-width="0.6" stroke-opacity="0.55"/><path transform="translate(-.7,-.2)" d="M42.1,32.2 Q42.9,34.6 41.1,39.8 M44.4,31.8 Q45.2,34.6 43.7,40.7 M46.7,31.4 Q47.5,34.6 46.4,41.6 M49.1,31 Q49.9,34.6 49.1,42.5 M51.4,31.4 Q52.2,34.6 51.7,41.6 M53.7,31.8 Q54.5,34.6 54.4,40.7 M56,32.2 Q56.8,34.6 57,39.8 " fill="none" stroke="#f0a070" stroke-width="0.5" stroke-opacity="0.55"/><path d="M42,30 Q44,39.5 47,41.5 L45,32Z" fill="#f0a070" stroke="none" fill-opacity="0.45" filter="url(#teu1-soft)"/></g><path d="M42,33.6 Q42.6,30.6 45.4,30.6 Q47.4,30.4 48.4,31.4 Q50,30.4 51.8,31.4 Q51,33.2 48.6,32.8 Q45.4,32.4 42,33.6Z" fill="url(#teu1-ginger)" stroke="#3b2a17" stroke-width="0.8" stroke-opacity=".75"/><path d="M43,32 Q45.4,31 48,31.6" fill="none" stroke="#f0a070" stroke-width="0.5" stroke-opacity="0.7"/><path d="M45,34.2 Q46.6,34.8 48,34.2" fill="none" stroke="#6a2a1a" stroke-width="0.8" stroke-opacity="0.8"/></g></svg>